<?xml version="1.0" encoding="utf-8"?>
<!-- Generator: Adobe Illustrator 17.0.0, SVG Export Plug-In . SVG Version: 6.00 Build 0)  -->
<!DOCTYPE svg PUBLIC "-//W3C//DTD SVG 1.1//EN" "http://www.w3.org/Graphics/SVG/1.1/DTD/svg11.dtd">
<svg version="1.1"
	 id="svg3381" xmlns:dc="http://purl.org/dc/elements/1.1/" xmlns:cc="http://creativecommons.org/ns#" xmlns:rdf="http://www.w3.org/1999/02/22-rdf-syntax-ns#" xmlns:svg="http://www.w3.org/2000/svg" xmlns:sodipodi="http://sodipodi.sourceforge.net/DTD/sodipodi-0.dtd" xmlns:inkscape="http://www.inkscape.org/namespaces/inkscape" sodipodi:docname="checkbox.svg" inkscape:version="0.48+devel r12660"
	 xmlns="http://www.w3.org/2000/svg" xmlns:xlink="http://www.w3.org/1999/xlink" x="0px" y="0px" width="48px" height="48px"
	 viewBox="0 0 48 48" enable-background="new 0 0 48 48" xml:space="preserve">
<sodipodi:namedview  fit-margin-left="0" fit-margin-top="0" showgrid="false" inkscape:cy="71.141608" inkscape:cx="174.58261" inkscape:zoom="2" borderopacity="1.0" bordercolor="#666666" pagecolor="#ffffff" id="base" inkscape:window-maximized="1" inkscape:window-y="30" inkscape:window-x="0" inkscape:window-height="714" inkscape:window-width="1366" inkscape:current-layer="layer1" inkscape:document-units="px" inkscape:pageopacity="0.0" fit-margin-right="0" fit-margin-bottom="0" inkscape:pageshadow="2">
	<sodipodi:guide  orientation="30.000031,0" position="9.0000117,39.000009" id="guide3264"></sodipodi:guide>
	<sodipodi:guide  orientation="0,30" position="9.0000117,8.9999785" id="guide3266"></sodipodi:guide>
	<sodipodi:guide  orientation="-30.000031,0" position="39.000012,34.58801" id="guide3268"></sodipodi:guide>
	<sodipodi:guide  orientation="0,-30" position="39.000012,39.000009" id="guide3270"></sodipodi:guide>
	<sodipodi:guide  orientation="11,0" position="9.0000117,19.999979" id="guide3276"></sodipodi:guide>
	<sodipodi:guide  orientation="15.000031,0" position="24.000012,39.000009" id="guide3311"></sodipodi:guide>
	<sodipodi:guide  orientation="0,15" position="24.000012,23.999979" id="guide3313"></sodipodi:guide>
	<sodipodi:guide  orientation="0,-15" position="39.000012,39.000009" id="guide3317"></sodipodi:guide>
</sodipodi:namedview>
<g id="layer1" transform="translate(-364.57143,-499.79075)" inkscape:label="Capa 1" inkscape:groupmode="layer">
	<rect id="rect3260" x="373.571" y="508.791" fill="none" width="30" height="30"/>
	<rect id="rect3272" x="388.571" y="508.791" fill="none" width="15" height="15"/>
	<rect id="rect3322" x="384.071" y="519.291" fill="none" width="9" height="9"/>
	
		<rect id="rect3284" x="386.571" y="519.427" transform="matrix(-0.7071 0.7071 -0.7071 -0.7071 1033.709 619.4053)" fill="#FF8080" width="4" height="8.728"/>
	<path id="path3304" fill="#DCDCDC" d="M388.566,508.791c-3.927,0-7.829,1.618-10.604,4.395c-2.775,2.777-4.391,6.679-4.391,10.605
		c0,3.927,1.616,7.829,4.391,10.605c2.775,2.777,6.676,4.394,10.604,4.395c3.927,0,7.831-1.616,10.609-4.393
		c2.778-2.777,4.396-6.68,4.396-10.607h-4c0,2.88-1.187,5.743-3.225,7.779c-2.038,2.036-4.901,3.221-7.781,3.221
		c-2.88,0-5.74-1.186-7.775-3.223c-2.035-2.036-3.219-4.898-3.219-7.777c0-2.88,1.184-5.741,3.219-7.777
		c2.035-2.036,4.895-3.223,7.775-3.223c0.002,0,0.004,0,0.006,0v-4C388.569,508.791,388.568,508.791,388.566,508.791z"/>
	<rect id="rect3331" x="403.571" y="508.791" fill="none" width="4" height="15"/>
	<path id="path4149" fill="#DCDCDC" d="M404.743,508.791l-17,17l2.828,2.828l17-17L404.743,508.791L404.743,508.791z"/>
	
		<rect id="rect3339" x="386.571" y="519.427" transform="matrix(-0.7071 0.7071 -0.7071 -0.7071 1033.709 619.4053)" fill="#DCDCDC" width="4" height="8.728"/>
</g>
</svg>
