<?xml version="1.0" encoding="utf-8"?>
<!-- Generator: Adobe Illustrator 17.0.0, SVG Export Plug-In . SVG Version: 6.00 Build 0)  -->
<!DOCTYPE svg PUBLIC "-//W3C//DTD SVG 1.1//EN" "http://www.w3.org/Graphics/SVG/1.1/DTD/svg11.dtd">
<svg version="1.1"
	 id="svg3613" xmlns:dc="http://purl.org/dc/elements/1.1/" xmlns:cc="http://creativecommons.org/ns#" xmlns:rdf="http://www.w3.org/1999/02/22-rdf-syntax-ns#" xmlns:svg="http://www.w3.org/2000/svg" xmlns:sodipodi="http://sodipodi.sourceforge.net/DTD/sodipodi-0.dtd" xmlns:inkscape="http://www.inkscape.org/namespaces/inkscape" sodipodi:docname="gnome-run.svg" inkscape:version="0.48+devel r12662"
	 xmlns="http://www.w3.org/2000/svg" xmlns:xlink="http://www.w3.org/1999/xlink" x="0px" y="0px" width="48px" height="48px"
	 viewBox="0 0 48 48" enable-background="new 0 0 48 48" xml:space="preserve">
<sodipodi:namedview  showgrid="false" inkscape:cy="21.617534" inkscape:cx="3.5017638" inkscape:zoom="5.6811594" borderopacity="1.0" bordercolor="#666666" pagecolor="#ffffff" id="base" inkscape:window-maximized="1" inkscape:window-y="30" inkscape:window-x="0" inkscape:window-height="714" inkscape:window-width="1366" inkscape:current-layer="layer1" inkscape:document-units="px" inkscape:pageopacity="0.0" inkscape:pageshadow="2">
	<sodipodi:guide  orientation="30,0" position="9,39.000017" id="guide3269"></sodipodi:guide>
	<sodipodi:guide  orientation="0,30" position="9,9.0000174" id="guide3271"></sodipodi:guide>
	<sodipodi:guide  orientation="-30,0" position="39,9.0000174" id="guide3273"></sodipodi:guide>
	<sodipodi:guide  orientation="0,-30" position="39,39.000017" id="guide3275"></sodipodi:guide>
</sodipodi:namedview>
<g id="layer1" transform="translate(0,-1004.3622)" inkscape:label="Capa 1" inkscape:groupmode="layer">
	<rect id="rect3265" x="9" y="1013.362" fill="none" width="30" height="30"/>
	<rect id="rect4147" x="9" y="1032.362" fill="none" width="11" height="11"/>
	<rect id="rect4149" x="21" y="1013.362" fill="none" width="18" height="18"/>
	<path id="path4151" inkscape:connector-curvature="0" fill="#DCDCDC" d="M14.499,1032.364c-0.349,0-0.699,0.036-1.042,0.102
		l-0.551,1.337v0.02c-0.2,0.079-0.396,0.166-0.582,0.273c-0.185,0.107-0.358,0.232-0.524,0.365l-0.018-0.01l-1.435-0.191
		c-0.457,0.529-0.817,1.141-1.047,1.801l0.888,1.153l0.015,0.01c-0.061,0.423-0.059,0.855,0.003,1.279l-0.018,0.01l-0.888,1.154
		c0.113,0.33,0.256,0.65,0.43,0.952c0.175,0.302,0.38,0.586,0.609,0.849l1.443-0.193l0.018-0.01
		c0.335,0.266,0.708,0.483,1.105,0.642v0.017l0.554,1.345c0.687,0.13,1.396,0.125,2.083-0.01l0.552-1.339v-0.019
		c0.199-0.077,0.393-0.165,0.578-0.272c0.186-0.107,0.36-0.233,0.528-0.367l0.018,0.01l1.434,0.191
		c0.458-0.529,0.816-1.142,1.047-1.802l-0.887-1.151l-0.015-0.01c0.062-0.423,0.06-0.855-0.003-1.278l0.018-0.01l0.887-1.153
		c-0.113-0.33-0.255-0.65-0.429-0.952c-0.175-0.302-0.381-0.585-0.61-0.848l-1.442,0.192l-0.018,0.011
		c-0.335-0.266-0.708-0.483-1.105-0.641l-0.001-0.017l-0.553-1.343c-0.344-0.065-0.693-0.097-1.042-0.096L14.499,1032.364z
		 M14.499,1034.672c0.835,0,1.665,0.344,2.256,0.934c0.591,0.59,0.935,1.42,0.935,2.255c0,0.835-0.344,1.665-0.935,2.255
		s-1.421,0.934-2.256,0.934c-0.835,0-1.664-0.344-2.254-0.934c-0.59-0.59-0.933-1.42-0.933-2.255c0-0.835,0.343-1.664,0.933-2.255
		C12.835,1035.016,13.664,1034.672,14.499,1034.672z"/>
	<path id="path4112" inkscape:connector-curvature="0" fill="#DCDCDC" d="M29.999,1013.362c-0.572,0-1.144,0.058-1.706,0.166
		l-0.902,2.189v0.034c-0.327,0.128-0.648,0.271-0.952,0.447c-0.302,0.175-0.586,0.379-0.858,0.597l-0.029-0.017l-2.35-0.313
		c-0.749,0.866-1.337,1.867-1.714,2.947l1.453,1.887l0.024,0.013c-0.101,0.693-0.097,1.4,0.006,2.093l-0.03,0.017l-1.454,1.889
		c0.185,0.54,0.419,1.063,0.704,1.558c0.286,0.495,0.622,0.959,0.997,1.389l2.363-0.315l0.03-0.017
		c0.549,0.436,1.159,0.791,1.809,1.05v0.029l0.907,2.201c1.124,0.213,2.285,0.205,3.409-0.011l0.904-2.191v-0.032
		c0.325-0.127,0.644-0.27,0.946-0.445c0.304-0.176,0.59-0.381,0.864-0.601l0.029,0.017l2.347,0.313
		c0.749-0.867,1.336-1.869,1.714-2.95l-1.451-1.883l-0.024-0.015c0.101-0.693,0.098-1.399-0.005-2.092l0.03-0.017l1.452-1.888
		c-0.185-0.54-0.417-1.064-0.703-1.559c-0.286-0.495-0.624-0.958-0.999-1.388l-2.361,0.314l-0.03,0.018
		c-0.549-0.435-1.159-0.791-1.809-1.05l-0.001-0.029l-0.906-2.198C31.142,1013.413,30.571,1013.361,29.999,1013.362L29.999,1013.362
		z M29.998,1017.141c1.367,0,2.726,0.563,3.693,1.529c0.967,0.966,1.53,2.324,1.53,3.691c0,1.367-0.563,2.725-1.53,3.692
		s-2.326,1.528-3.693,1.528c-1.367,0-2.724-0.563-3.69-1.529c-0.966-0.966-1.527-2.324-1.527-3.691c0-1.366,0.562-2.724,1.527-3.691
		C27.274,1017.704,28.631,1017.141,29.998,1017.141z"/>
</g>
</svg>
